<?xml version="1.0" encoding="UTF-8"?>
<svg version="1.1" xmlns="http://www.w3.org/2000/svg" width="2419" height="403">
<path d="M0 0 C2.89635392 -0.00238586 5.79269186 -0.00770058 8.68904114 -0.01329041 C38.88412095 -0.05596092 68.98100754 0.67884952 99.00776672 4.12257385 C99.75756805 4.20622192 100.50736938 4.28987 101.27989197 4.37605286 C149.08397048 9.7315235 211.51061353 17.04903663 246.32026672 54.31007385 C255.58046826 66.27710353 259.01176979 78.39145238 257.32026672 93.31007385 C255.53032472 101.89777312 251.4138925 109.6140574 247.32026672 117.31007385 C246.66026672 117.31007385 246.00026672 117.31007385 245.32026672 117.31007385 C245.10757141 118.00487854 244.8948761 118.69968323 244.67573547 119.4155426 C242.94756299 123.10596281 240.43018415 125.72741327 237.63276672 128.62257385 C236.54194913 129.77269267 235.4521011 130.92373185 234.36323547 132.07569885 C233.83778137 132.6293512 233.31232727 133.18300354 232.77095032 133.75343323 C230.41055133 136.28623429 228.20246657 138.94365928 226.01557922 141.6264801 C223.70129262 143.92476933 221.04064289 145.51409735 218.32026672 147.31007385 C216.67982554 148.60008735 215.07995064 149.93218639 213.47651672 151.26783752 C203.98103024 159.1560151 193.7779287 165.77899292 183.32026672 172.31007385 C182.68185852 172.71290588 182.04345032 173.11573792 181.38569641 173.53077698 C166.67504981 182.78306386 151.16063207 190.81037194 135.70698547 198.7358551 C134.74365295 199.23125793 133.78032043 199.72666077 132.78779602 200.23707581 C130.32026672 201.31007385 130.32026672 201.31007385 127.32026672 201.31007385 C127.63620537 200.49549461 127.63620537 200.49549461 127.95852661 199.66445923 C130.00989043 194.02793359 130.78334306 189.09248493 130.83198547 183.1186676 C130.84993668 182.28795242 130.86788788 181.45723724 130.88638306 180.60134888 C130.9399759 177.98347346 130.97421552 175.36577481 131.00776672 172.74757385 C131.04098504 170.95783596 131.07547878 169.16812127 131.11128235 167.37843323 C131.19804193 163.02229522 131.25854291 158.66692388 131.32026672 154.31007385 C119.44026672 154.31007385 107.56026672 154.31007385 95.32026672 154.31007385 C95.32026672 159.26007385 95.32026672 164.21007385 95.32026672 169.31007385 C98.95026672 169.31007385 102.58026672 169.31007385 106.32026672 169.31007385 C106.45576313 172.51983307 106.55460711 175.72383014 106.63276672 178.93507385 C106.67466125 179.83870667 106.71655579 180.74233948 106.75971985 181.6733551 C106.83895494 186.01543799 106.83353653 189.33812232 104.17573547 192.91163635 C100.91967832 195.64654619 99.51947791 196.12434749 95.32026672 196.06007385 C94.30964172 196.0755426 93.29901672 196.09101135 92.25776672 196.10694885 C89.00797784 195.22535719 87.44849802 194.04761354 85.37007141 191.41197205 C83.06629771 186.79940188 83.65767803 181.47024031 83.72651672 176.4311676 C83.72647644 175.18634109 83.72643616 173.94151459 83.72639465 172.65896606 C83.73311507 169.36098451 83.76307445 166.06421583 83.80207825 162.76649475 C83.82026546 160.74771414 83.82283522 158.72956131 83.81929016 156.71070862 C83.81263795 152.82557884 83.82773695 148.94121981 83.85151672 145.0561676 C83.85171814 143.85399094 83.85191956 142.65181427 83.85212708 141.41320801 C83.86803894 140.29176895 83.88395081 139.1703299 83.90034485 138.01490784 C83.90876404 137.03150925 83.91718323 136.04811066 83.92585754 135.03491211 C84.5275763 130.87784281 86.38996186 128.24037871 89.32026672 125.31007385 C93.41535423 124.26622802 95.9667663 124.21580707 100.07026672 125.31007385 C104.22403523 127.86623909 105.02062806 129.64666452 106.32026672 134.31007385 C106.32026672 136.95007385 106.32026672 139.59007385 106.32026672 142.31007385 C114.57026672 142.31007385 122.82026672 142.31007385 131.32026672 142.31007385 C130.9069898 132.59806613 130.1830554 124.42258828 124.19526672 116.49757385 C114.27868173 108.95234614 102.67147055 106.18243185 90.32026672 107.31007385 C80.24770658 108.76689611 72.74957944 110.88076113 65.50776672 118.12257385 C59.91823171 126.26732488 59.86465642 133.67622921 59.88667297 143.30226135 C59.88210157 144.65692911 59.87679318 146.01159455 59.87078857 147.36625671 C59.86189347 150.19544437 59.86423828 153.02434922 59.8742218 155.85353088 C59.88569589 159.45334764 59.86550704 163.05218109 59.83630466 166.65186882 C59.81782809 169.44714919 59.81825783 172.24219897 59.82394218 175.03752518 C59.82416716 177.00152514 59.80737429 178.96550382 59.79013062 180.9294281 C59.86269123 190.32507332 61.01492227 198.28914216 67.82026672 205.18507385 C77.05068734 212.39262144 88.07487069 213.00282259 99.32026672 213.31007385 C99.32026672 213.97007385 99.32026672 214.63007385 99.32026672 215.31007385 C4.65752053 253.72406426 -93.42994768 280.76546568 -641.67973328 305.31007385 C-643.0946405 304.90667786 -643.0946405 304.90667786 -644.53813171 304.49513245 C-665.87758736 298.24915859 -692.90790249 288.69617784 -706.67973328 270.31007385 C-707.28301453 269.60108948 -707.88629578 268.8921051 -708.50785828 268.16163635 C-715.66208604 259.59459891 -718.43443926 251.25755015 -718.30473328 240.12257385 C-718.29490417 239.11589661 -718.28507507 238.10921936 -718.27494812 237.07203674 C-717.55928952 214.13976609 -700.82478441 196.78565334 -684.99223328 181.81007385 C-663.82341637 162.52903287 -638.32945753 147.91580787 -613.24223328 134.43507385 C-612.09408142 133.81672668 -610.94592957 133.19837952 -609.76298523 132.56129456 C-588.63101156 121.31007385 -588.63101156 121.31007385 -584.67973328 121.31007385 C-584.9194989 122.5649762 -584.9194989 122.5649762 -585.16410828 123.8452301 C-586.61764105 133.61252991 -587.05218036 142.90240365 -581.37895203 151.21632385 C-575.56586386 158.71708278 -567.15887517 162.83537532 -559.00785828 167.3452301 C-542.60712476 176.45529088 -542.60712476 176.45529088 -539.67973328 182.31007385 C-539.06862701 187.2425744 -538.96451363 191.07693654 -541.49223328 195.43507385 C-546.15591811 198.17841788 -550.39604408 198.20561439 -555.67973328 197.31007385 C-558.84593423 195.12388748 -559.46937198 193.94115774 -560.67973328 190.31007385 C-560.67973328 186.35007385 -560.67973328 182.39007385 -560.67973328 178.31007385 C-569.58973328 178.31007385 -578.49973328 178.31007385 -587.67973328 178.31007385 C-587.1480074 193.76016069 -587.1480074 193.76016069 -579.59770203 206.7436676 C-569.38851834 215.08151416 -555.35767432 216.22260216 -542.73832703 215.0327301 C-534.19568286 213.88716479 -526.35053412 211.48601257 -520.24223328 205.12257385 C-514.30380609 197.2999998 -513.83410371 187.79065318 -514.67973328 178.31007385 C-515.89398748 171.17769783 -519.24803 166.02880744 -524.67973328 161.31007385 C-528.29707747 158.78139686 -532.03042765 156.52126545 -535.866745 154.34083557 C-537.76237753 153.26308705 -539.64528196 152.16515773 -541.52738953 151.0639801 C-547.88729459 147.22781432 -547.88729459 147.22781432 -554.67973328 144.31007385 C-554.67973328 143.65007385 -554.67973328 142.99007385 -554.67973328 142.31007385 C-555.29848328 142.04194885 -555.91723328 141.77382385 -556.55473328 141.49757385 C-558.67973328 140.31007385 -558.67973328 140.31007385 -560.67973328 137.31007385 C-561.51544869 132.61247351 -561.30748626 129.27132061 -558.67973328 125.24757385 C-554.8358969 122.76509619 -552.13460307 122.46409858 -547.67973328 123.31007385 C-543.11028883 125.44896274 -543.11028883 125.44896274 -541.67973328 128.31007385 C-541.67973328 131.94007385 -541.67973328 135.57007385 -541.67973328 139.31007385 C-533.42973328 139.31007385 -525.17973328 139.31007385 -516.67973328 139.31007385 C-516.79245144 125.84454107 -516.79245144 125.84454107 -523.30082703 114.60694885 C-530.62810193 108.33077991 -540.36680463 107.20554776 -549.67973328 106.31007385 C-546.43558624 103.60149843 -543.19386438 102.17232082 -539.25785828 100.6655426 C-538.61844803 100.41947266 -537.97903778 100.17340271 -537.32025146 99.9198761 C-535.19294912 99.1046723 -533.06176215 98.3003292 -530.92973328 97.49757385 C-530.18621613 97.2158432 -529.44269897 96.93411255 -528.676651 96.6438446 C-482.7544662 79.25771018 -436.15828219 64.79474027 -388.67973328 52.31007385 C-387.88843018 52.1016687 -387.09712708 51.89326355 -386.28184509 51.67854309 C-297.2526555 28.2793173 -205.4470354 12.533937 -97.41459656 3.51582336 C-94.66213326 3.30874977 -91.91120801 3.0869002 -89.16020203 2.86134338 C-59.44779736 0.4535556 -29.7936147 0.02094019 0 0 Z M-244.51957703 114.9467926 C-250.02206035 120.93360209 -252.24124103 127.15606822 -252.11723328 135.24757385 C-252.10820984 135.95269104 -252.0991864 136.65780823 -252.08988953 137.3842926 C-251.90361405 142.97255683 -251.15350863 146.92530842 -247.67973328 151.31007385 C-247.20149109 151.93655823 -246.7232489 152.5630426 -246.23051453 153.20851135 C-240.33446922 159.9127786 -232.35801444 163.88283321 -224.67094421 168.19093323 C-207.3765627 177.91107115 -207.3765627 177.91107115 -205.67973328 183.31007385 C-205.45190628 187.48690211 -205.69460945 191.24643807 -206.67973328 195.31007385 C-209.58013647 196.14064386 -212.1654543 196.44539673 -215.17973328 196.43507385 C-215.93254578 196.43765198 -216.68535828 196.4402301 -217.46098328 196.44288635 C-219.71129683 196.30818449 -221.56963019 196.11524477 -223.67973328 195.31007385 C-225.49170791 189.87414994 -225.31451327 183.99707106 -225.67973328 178.31007385 C-234.58973328 178.31007385 -243.49973328 178.31007385 -252.67973328 178.31007385 C-253.00794853 189.6882026 -252.77384518 198.64386504 -244.67973328 207.31007385 C-234.84447508 215.75009775 -221.19802825 216.26869822 -208.84233093 215.5302887 C-200.47420304 214.67817181 -191.79998709 211.86928933 -186.06645203 205.5249176 C-180.80001125 199.00156972 -179.32722595 192.66360447 -179.36723328 184.31007385 C-179.35112 183.63718323 -179.33500671 182.9642926 -179.31840515 182.27101135 C-179.31201592 175.65176446 -181.36209669 170.31283021 -185.74223328 165.37257385 C-186.24883484 164.78605042 -186.7554364 164.19952698 -187.27738953 163.5952301 C-188.60845386 162.08486331 -188.60845386 162.08486331 -190.67973328 162.31007385 C-191.00973328 161.32007385 -191.33973328 160.33007385 -191.67973328 159.31007385 C-193.16097895 158.06126275 -193.16097895 158.06126275 -195.05473328 156.99757385 C-195.77274109 156.5696051 -196.4907489 156.14163635 -197.23051453 155.70069885 C-200.81499887 153.66548924 -204.42681525 151.68525316 -208.05863953 149.7358551 C-210.29980235 148.51674269 -212.49097241 147.24462845 -214.67973328 145.93507385 C-217.55073992 144.07193228 -217.55073992 144.07193228 -220.67973328 144.31007385 C-220.94785828 143.75319885 -221.21598328 143.19632385 -221.49223328 142.62257385 C-222.63390254 140.23969989 -222.63390254 140.23969989 -224.36723328 138.06007385 C-226.28355094 134.04493207 -225.60184883 131.63692377 -224.67973328 127.31007385 C-221.79598111 124.42632169 -218.59157724 124.38515723 -214.67973328 124.31007385 C-211.80473328 124.93507385 -211.80473328 124.93507385 -209.67973328 126.31007385 C-207.19988101 130.5258227 -207.31405911 134.23546719 -206.67973328 139.31007385 C-198.42973328 139.31007385 -190.17973328 139.31007385 -181.67973328 139.31007385 C-181.45209815 131.13660726 -181.45209815 131.13660726 -183.05473328 123.87257385 C-183.30996765 123.06948792 -183.56520203 122.26640198 -183.82817078 121.4389801 C-184.69093241 119.07009713 -184.69093241 119.07009713 -186.67973328 116.31007385 C-187.33973328 116.31007385 -187.99973328 116.31007385 -188.67973328 116.31007385 C-189.17473328 114.82507385 -189.17473328 114.82507385 -189.67973328 113.31007385 C-204.04658151 102.96471519 -231.10579109 103.0139342 -244.51957703 114.9467926 Z M-477.67973328 109.31007385 C-481.69223234 129.01965338 -485.40538916 148.77464897 -489.03837585 168.55690002 C-489.84389186 172.94294764 -490.65282431 177.32835762 -491.46267414 181.71360683 C-492.09105024 185.11814754 -492.71773069 188.52299861 -493.34387779 191.92794991 C-493.64199942 193.54801496 -493.94064113 195.16798439 -494.23981667 196.78785515 C-494.65291132 199.02598675 -495.06373243 201.26452364 -495.47392273 203.50318909 C-495.7075502 204.77347458 -495.94117767 206.04376007 -496.18188477 207.35253906 C-496.73506556 210.13892527 -496.73506556 210.13892527 -496.67973328 212.31007385 C-487.43973328 212.31007385 -478.19973328 212.31007385 -468.67973328 212.31007385 C-466.98085538 201.05361753 -465.28508048 189.79670576 -463.59476471 178.53896046 C-462.80976173 173.31157267 -462.02340026 168.08439678 -461.2339325 162.85768127 C-460.47211645 157.81369709 -459.71387113 152.76918791 -458.95809937 147.72429466 C-458.66911953 145.79959164 -458.37885323 143.87508132 -458.08728027 141.95076942 C-457.67914444 139.25568798 -457.2755863 136.55995793 -456.87309265 133.86402893 C-456.75153305 133.06849106 -456.62997345 132.27295319 -456.50473022 131.45330811 C-455.95046632 127.70917541 -455.53600701 124.09738453 -455.67973328 120.31007385 C-455.01973328 120.31007385 -454.35973328 120.31007385 -453.67973328 120.31007385 C-453.63618713 120.97442947 -453.59264099 121.6387851 -453.54777527 122.32327271 C-452.869678 131.5207172 -451.56654918 140.5972902 -450.21098328 149.7124176 C-449.96789641 151.36476464 -449.72510396 153.01715501 -449.48258972 154.66958618 C-448.9771745 158.10811296 -448.46934103 161.54627009 -447.95951843 164.98414612 C-447.30709952 169.38385716 -446.65911806 173.78420691 -446.0127182 178.18480587 C-445.51285339 181.58647358 -445.01152884 184.98792474 -444.50967407 188.38929939 C-444.27021469 190.0123332 -444.0310049 191.63540386 -443.79205322 193.2585125 C-443.45843862 195.52191446 -443.12306938 197.78504929 -442.78715515 200.04811096 C-442.59697815 201.33318039 -442.40680115 202.61824982 -442.21086121 203.94226074 C-441.76912966 206.74322304 -441.23583636 209.52955845 -440.67973328 212.31007385 C-431.76973328 212.31007385 -422.85973328 212.31007385 -413.67973328 212.31007385 C-414.32145934 205.25108711 -415.04451241 198.53225777 -416.35380554 191.61598206 C-416.51976227 190.71704727 -416.68571899 189.81811249 -416.85670471 188.89193726 C-417.39844612 185.96400796 -417.94721836 183.03744604 -418.49613953 180.1108551 C-418.87629249 178.06399528 -419.25600036 176.01705275 -419.63528442 173.97003174 C-420.62874341 168.61487554 -421.62819744 163.26085564 -422.62895203 157.90705872 C-423.83166664 151.46580855 -425.02684591 145.02315638 -426.22330475 138.58074188 C-428.03637899 128.82277301 -429.85894877 119.06662115 -431.67973328 109.31007385 C-446.85973328 109.31007385 -462.03973328 109.31007385 -477.67973328 109.31007385 Z M-389.67973328 109.31007385 C-390.3576104 112.69945945 -390.81151076 115.28705107 -390.87591553 118.63180542 C-390.8941185 119.46326584 -390.91232147 120.29472626 -390.93107605 121.15138245 C-390.94618225 122.04977844 -390.96128845 122.94817444 -390.97685242 123.87379456 C-391.00633217 125.30866463 -391.00633217 125.30866463 -391.03640747 126.77252197 C-391.1001581 129.92689822 -391.15755339 133.08135628 -391.21488953 136.2358551 C-391.25790918 138.42590088 -391.30132579 140.61593888 -391.34512329 142.80596924 C-391.45922371 148.56473258 -391.5679322 154.32358558 -391.67552185 160.08247375 C-391.78630236 165.96113842 -391.90217684 171.83970243 -392.0176239 177.71827698 C-392.24331543 189.24878452 -392.4628405 200.77939744 -392.67973328 212.31007385 C-384.09973328 212.31007385 -375.51973328 212.31007385 -366.67973328 212.31007385 C-366.67973328 182.61007385 -366.67973328 152.91007385 -366.67973328 122.31007385 C-366.01973328 122.31007385 -365.35973328 122.31007385 -364.67973328 122.31007385 C-364.57315399 123.11196136 -364.46657471 123.91384888 -364.35676575 124.74003601 C-362.99475845 134.6526712 -361.25245549 144.46747263 -359.42192078 154.30226135 C-359.11064881 155.98614516 -358.79962845 157.67007549 -358.48884583 159.35404968 C-357.67923796 163.73719477 -356.86626633 168.11970909 -356.05253601 172.50209045 C-355.21916119 176.99369055 -354.38904724 181.48589318 -353.55863953 185.9780426 C-351.93548603 194.75597198 -350.30846823 203.5331784 -348.67973328 212.31007385 C-340.09973328 212.31007385 -331.51973328 212.31007385 -322.67973328 212.31007385 C-320.24546842 202.13130015 -318.22508873 191.92307759 -316.32426453 181.6342926 C-316.01491304 179.97130871 -315.70531279 178.30837108 -315.39547729 176.64547729 C-314.58913914 172.31420201 -313.78613304 167.98231577 -312.98387146 163.65028381 C-312.16123645 159.21162924 -311.33537961 154.77357425 -310.5098114 150.33546448 C-308.89667049 141.66091071 -307.28705691 132.98570739 -305.67973328 124.31007385 C-304.52193707 133.64660835 -304.45767694 142.95690229 -304.36332703 152.34913635 C-304.34271877 154.08362784 -304.32172139 155.81811474 -304.300354 157.55259705 C-304.24553263 162.08654535 -304.19594967 166.62053593 -304.14750671 171.15455627 C-304.09699741 175.79367267 -304.041466 180.43272876 -303.9863739 185.0717926 C-303.87928185 194.15116976 -303.77819609 203.23059901 -303.67973328 212.31007385 C-295.42973328 212.31007385 -287.17973328 212.31007385 -278.67973328 212.31007385 C-278.57383557 190.82460619 -278.65403829 169.35398483 -279.11723328 147.87257385 C-279.13688141 146.91582764 -279.15652954 145.95908142 -279.17677307 144.9733429 C-279.23497524 142.19094984 -279.2981979 139.4087189 -279.36332703 136.6264801 C-279.38004456 135.83488998 -279.39676208 135.04329987 -279.41398621 134.22772217 C-279.6236912 125.89909788 -280.1894836 117.64431828 -280.67973328 109.31007385 C-294.53973328 109.31007385 -308.39973328 109.31007385 -322.67973328 109.31007385 C-324.81399862 122.59109118 -324.81399862 122.59109118 -326.94535828 135.87257385 C-327.81359882 141.28710688 -328.68218434 146.70158302 -329.55278015 152.11573792 C-330.25439712 156.47916405 -330.95450362 160.84283006 -331.65354919 165.20666885 C-331.92094276 166.87417416 -332.18888687 168.54159127 -332.4573822 170.20891953 C-332.8324223 172.53847 -333.2055299 174.86832216 -333.57817078 177.19825745 C-333.69037964 177.89237228 -333.8025885 178.58648712 -333.91819763 179.30163574 C-334.48621749 182.7887313 -334.48621749 182.7887313 -334.67973328 186.31007385 C-335.33973328 186.31007385 -335.99973328 186.31007385 -336.67973328 186.31007385 C-336.72581726 185.54289536 -336.77190125 184.77571686 -336.81938171 183.98529053 C-337.39847047 175.41304778 -338.53944744 167.02330363 -339.92973328 158.5483551 C-340.15048364 157.1817313 -340.37085375 155.81504603 -340.59086609 154.44830322 C-341.04812811 151.61496858 -341.50897986 148.78225077 -341.97270203 145.94996643 C-342.5671331 142.31832554 -343.15373274 138.68547135 -343.73789978 135.05216694 C-344.19001428 132.243995 -344.64544484 129.43636921 -345.10197449 126.62891197 C-345.31972467 125.28819356 -345.53660909 123.94733424 -345.75260925 122.60633278 C-346.05316866 120.74443447 -346.35851954 118.88331152 -346.66410828 117.02223206 C-346.83652039 115.9644606 -347.0089325 114.90668915 -347.18656921 113.81686401 C-347.56124525 111.32525803 -347.56124525 111.32525803 -348.67973328 109.31007385 C-362.20973328 109.31007385 -375.73973328 109.31007385 -389.67973328 109.31007385 Z M-155.67973328 109.31007385 C-155.72505162 119.30730017 -155.76168816 129.30445743 -155.78335762 139.30176353 C-155.79376174 143.94470942 -155.80785888 148.58758092 -155.83061218 153.23048401 C-155.8524614 157.717365 -155.86432721 162.20417477 -155.86948776 166.69110489 C-155.87316194 168.39657842 -155.88033628 170.10204838 -155.89119339 171.8074913 C-156.34981544 190.10872338 -156.34981544 190.10872338 -148.25004578 205.9311676 C-139.85953762 213.980435 -127.97267348 215.67500425 -116.77738953 215.52101135 C-106.19496325 214.80039216 -96.45466185 212.62551298 -89.09379578 204.57569885 C-84.44847921 198.50725062 -83.38156651 192.47301166 -83.4526825 184.91798401 C-83.45239044 184.09780792 -83.45209839 183.27763184 -83.45179749 182.43260193 C-83.45318408 179.73800351 -83.46871356 177.04368611 -83.48442078 174.34913635 C-83.48815329 172.47441255 -83.49099914 170.59968678 -83.49299622 168.72496033 C-83.50061389 163.80287747 -83.52024633 158.88091358 -83.54240417 153.95887756 C-83.56290284 148.93142811 -83.57200652 143.90395934 -83.58207703 138.8764801 C-83.60349402 129.0209508 -83.63866093 119.16554086 -83.67973328 109.31007385 C-91.92973328 109.31007385 -100.17973328 109.31007385 -108.67973328 109.31007385 C-108.6943158 111.70732727 -108.70889832 114.10458069 -108.72392273 116.57447815 C-108.77427336 124.49749095 -108.8408693 132.42030731 -108.91544819 140.34312725 C-108.96016418 145.14646411 -108.99941763 149.94971591 -109.02616882 154.75318909 C-109.0521895 159.38934495 -109.0925832 164.0251737 -109.14291954 168.66112709 C-109.15959661 170.42929323 -109.17110566 172.19751597 -109.17734718 173.96574974 C-109.1869792 176.44374712 -109.21502698 178.92090607 -109.24736023 181.3986969 C-109.24592514 182.1287796 -109.24449005 182.8588623 -109.24301147 183.61106873 C-109.32380449 187.9928732 -109.92039609 190.86048161 -112.67973328 194.31007385 C-116.73704068 196.10465213 -119.10358174 196.40452492 -123.49223328 195.68507385 C-126.67973328 194.31007385 -126.67973328 194.31007385 -127.85902405 192.71723938 C-129.02213891 189.30578754 -128.98821955 185.98437948 -128.99858093 182.42042542 C-129.00862656 181.62980209 -129.01867218 180.83917877 -129.02902222 180.02459717 C-129.05986253 177.41663832 -129.07689164 174.80878217 -129.09379578 172.20069885 C-129.11250675 170.39036678 -129.13208011 168.58004343 -129.15248108 166.76972961 C-129.20381577 162.0088363 -129.24343436 157.24791471 -129.28062439 152.4868927 C-129.32065563 147.62710059 -129.37175199 142.76742626 -129.42192078 137.9077301 C-129.51869599 128.37525251 -129.60207291 118.84272636 -129.67973328 109.31007385 C-138.25973328 109.31007385 -146.83973328 109.31007385 -155.67973328 109.31007385 Z M-54.67973328 109.31007385 C-54.67973328 142.97007385 -54.67973328 176.63007385 -54.67973328 211.31007385 C-46.42973328 211.31007385 -38.17973328 211.31007385 -29.67973328 211.31007385 C-29.57637821 183.95543268 -29.61612791 156.6469947 -30.67973328 129.31007385 C-30.01973328 129.31007385 -29.35973328 129.31007385 -28.67973328 129.31007385 C-28.55840027 130.31334717 -28.43706726 131.31662048 -28.3120575 132.35029602 C-27.75215256 136.24720693 -26.7202042 139.90019868 -25.56254578 143.66651917 C-25.34942749 144.36497955 -25.1363092 145.06343994 -24.91673279 145.7830658 C-24.21768504 148.06966148 -23.51129145 150.35391388 -22.80473328 152.63819885 C-22.31486741 154.23512857 -21.82545384 155.83219709 -21.33647156 157.42939758 C-20.05261448 161.61847543 -18.76244924 165.80558452 -17.47099304 169.99232483 C-16.15636648 174.25847258 -14.8481036 178.52657065 -13.53910828 182.79444885 C-11.62818222 189.02100125 -9.71535058 195.2469617 -7.79692078 201.47120667 C-7.41132996 202.72250366 -7.02573914 203.97380066 -6.62846375 205.26301575 C-5.99888788 207.28503812 -5.34943024 209.30098296 -4.67973328 211.31007385 C7.20026672 211.31007385 19.08026672 211.31007385 31.32026672 211.31007385 C31.32026672 177.65007385 31.32026672 143.99007385 31.32026672 109.31007385 C23.07026672 109.31007385 14.82026672 109.31007385 6.32026672 109.31007385 C6.42891714 117.8386074 6.5411876 126.36707074 6.65960598 134.89547348 C6.7144687 138.85672791 6.76782435 142.81799002 6.81758118 146.77931213 C6.86577255 150.61138202 6.91812455 154.44337568 6.97320747 158.27535248 C6.99338619 159.72794412 7.01213511 161.18055644 7.02934074 162.63318634 C7.13224104 171.22926488 7.4612539 179.7518895 8.32026672 188.31007385 C7.66026672 188.31007385 7.00026672 188.31007385 6.32026672 188.31007385 C6.08132187 187.33013962 5.84237701 186.35020538 5.59619141 185.34057617 C3.27738017 175.90481392 0.74524856 166.54985509 -1.97270203 157.2202301 C-2.36831735 155.85548561 -2.76376566 154.49069268 -3.15905762 153.12585449 C-3.97642956 150.30624119 -4.79591731 147.48725446 -5.61698914 144.66871643 C-6.67038524 141.05192923 -7.71801641 137.43349986 -8.76412487 133.81459904 C-9.57417001 131.01478551 -10.38727924 128.21586923 -11.201334 125.41721916 C-11.58946254 124.08140349 -11.97660305 122.74530034 -12.36273766 121.40890694 C-12.89779364 119.55872529 -13.43744636 117.70987482 -13.9773407 115.86109924 C-14.28282333 114.81015579 -14.58830597 113.75921234 -14.90304565 112.67642212 C-15.45972355 110.37964036 -15.45972355 110.37964036 -16.67973328 109.31007385 C-29.21973328 109.31007385 -41.75973328 109.31007385 -54.67973328 109.31007385 Z " fill="#FEFEFE" transform="translate(774.6797332763672,30.689926147460938)"/>
<path d="M0 0 C14.52 0 29.04 0 44 0 C45.69992012 4.24980031 46.87556071 8.29570534 47.87939453 12.7277832 C48.14317902 13.87004616 48.14317902 13.87004616 48.41229248 15.03538513 C48.98961428 17.53965681 49.56124217 20.0451912 50.1328125 22.55078125 C50.53316747 24.29249507 50.93387847 26.03412708 51.33493042 27.77568054 C52.38732539 32.35002958 53.43488953 36.92547169 54.48144531 41.50115967 C55.55111624 46.17397006 56.62536076 50.84572853 57.69921875 55.51757812 C59.80395208 64.67736273 61.9035825 73.83830883 64 83 C66.56551468 73.51594427 69.02336446 64.0123543 71.35548973 54.46800995 C71.8713398 52.35692366 72.38911194 50.24631607 72.90730286 48.13580322 C74.002372 43.67427736 75.09503225 39.21216343 76.1875 34.75 C77.46566964 29.53047065 78.74484704 24.31119092 80.02596474 19.09238434 C80.53497141 17.016983 81.04245369 14.9412129 81.54985046 12.86541748 C81.8571962 11.61271057 82.16454193 10.36000366 82.48120117 9.06933594 C82.75115402 7.96652283 83.02110687 6.86370972 83.29924011 5.72747803 C83.79482636 3.79857111 84.3702153 1.88935409 85 0 C99.19 0 113.38 0 128 0 C128 42.9 128 85.8 128 130 C119.09 130 110.18 130 101 130 C100.67 99.97 100.34 69.94 100 39 C92.80352754 67.8254857 92.80352754 67.8254857 85.60961914 96.65161133 C84.21765137 102.22399902 84.21765137 102.22399902 83.56590271 104.83183289 C83.1105135 106.65492624 82.65559076 108.47813615 82.20103455 110.30143738 C81.5128028 113.06166581 80.82309618 115.82152186 80.13305664 118.58129883 C79.93055078 119.3949204 79.72804491 120.20854197 79.5194025 121.04681873 C78.76253671 124.0686797 77.98554617 127.04336148 77 130 C68.09 130 59.18 130 50 130 C48.73094803 125.0391605 47.46572146 120.077643 46.2097168 115.11352539 C45.7821877 113.428406 45.35253972 111.74382261 44.9206543 110.05981445 C44.2968573 107.62592444 43.68094651 105.19014784 43.06640625 102.75390625 C42.87470352 102.01290176 42.68300079 101.27189728 42.48548889 100.50843811 C41.33756116 95.91913416 40.6646167 91.48155486 40.34141541 86.75865173 C40.22874832 86.17829666 40.11608124 85.59794159 40 85 C39.01 84.505 39.01 84.505 38 84 C37.34 80.37 36.68 76.74 36 73 C33.36 61.78 30.72 50.56 28 39 C27.67 69.03 27.34 99.06 27 130 C18.09 130 9.18 130 0 130 C0 87.1 0 44.2 0 0 Z " fill="#FCFDFE" transform="translate(1442,130)"/>
<path d="M0 0 C12.54 0 25.08 0 38 0 C43.62564939 13.50155853 43.62564939 13.50155853 45.49194336 18.34082031 C45.9126561 19.42945374 46.33336884 20.51808716 46.76683044 21.63970947 C47.42172203 23.34172516 47.42172203 23.34172516 48.08984375 25.078125 C48.79035606 26.89349762 48.79035606 26.89349762 49.50502014 28.74554443 C50.48668091 31.2897794 51.46728318 33.83441866 52.44702148 36.37939453 C53.68338127 39.59089099 54.92179 42.80159217 56.16094112 46.01201248 C57.36727191 49.13788405 58.57228802 52.26426166 59.77734375 55.390625 C60.21191391 56.5172052 60.64648407 57.6437854 61.09422302 58.80450439 C64.44804304 67.51805368 67.72129217 76.25677912 71 85 C71.33 56.95 71.66 28.9 72 0 C80.58 0 89.16 0 98 0 C98 42.9 98 85.8 98 130 C85.79 130 73.58 130 61 130 C54.79204762 113.54201857 54.79204762 113.54201857 52.09960938 106.40039062 C50.27897563 101.57121525 48.45820243 96.74209286 46.63647461 91.91333008 C45.16396904 88.01020256 43.69219235 84.10680086 42.22087288 80.20322609 C41.66590168 78.73118575 41.11068953 77.25923623 40.55520439 75.78738976 C36.31266165 64.54535267 32.15418302 53.27563963 28 42 C27.67 71.04 27.34 100.08 27 130 C18.09 130 9.18 130 0 130 C0 87.1 0 44.2 0 0 Z " fill="#FDFEFE" transform="translate(1800,130)"/>
<path d="M0 0 C6.47478661 4.36942299 10.3334181 9.27575518 12 17 C13.08560443 27.73078223 9.73763328 35.92438439 3.2734375 44.37109375 C-0.14561432 48.32473958 -3.93960988 51.71973113 -8 55 C-7.38685521 58.44397518 -6.09729004 60.48935488 -3.9453125 63.22265625 C-3.33042969 64.00833984 -2.71554688 64.79402344 -2.08203125 65.60351562 C-1.43621094 66.41498047 -0.79039062 67.22644531 -0.125 68.0625 C0.51308594 68.87783203 1.15117187 69.69316406 1.80859375 70.53320312 C4.43194823 73.86579436 6.99544669 76.99544669 10 80 C10.66 72.08 11.32 64.16 12 56 C19.59 56 27.18 56 35 56 C35.32449359 70.27771813 34.30556942 82.94063633 29.0234375 96.20703125 C27.82796914 98.97371095 27.82796914 98.97371095 28 102 C29.46086634 104.286829 30.95189987 106.44834935 32.5625 108.625 C33.01415527 109.24802002 33.46581055 109.87104004 33.93115234 110.51293945 C37.09856084 114.85759992 40.38630281 119.0922497 43.8203125 123.23046875 C45 125 45 125 45 128 C40.64698737 128.26260827 36.29601643 128.42161414 31.9375 128.5625 C30.70837891 128.63791016 29.47925781 128.71332031 28.21289062 128.79101562 C19.20211843 129.00960579 19.20211843 129.00960579 15.56689453 125.95654297 C13.8194366 123.70981134 12.33991845 121.50798804 11 119 C10.05125 119.7425 9.1025 120.485 8.125 121.25 C-4.81967837 130.42564551 -21.67890382 131.63926785 -37.0078125 129.5 C-48.97559021 127.37239507 -58.25810626 123.64152508 -66 114 C-72.1519723 104.73542267 -73.41484468 93.13238452 -71.53515625 82.328125 C-68.30194503 70.00748581 -59.70978625 61.33030736 -49.50390625 54.26171875 C-49.00761719 53.84535156 -48.51132813 53.42898437 -48 53 C-48 52.34 -48 51.68 -48 51 C-48.66 51 -49.32 51 -50 51 C-51.5078125 48.8828125 -51.5078125 48.8828125 -53.125 46.125 C-53.66382812 45.22007812 -54.20265625 44.31515625 -54.7578125 43.3828125 C-56 41 -56 41 -56 39 C-56.66 38.67 -57.32 38.34 -58 38 C-60.83612013 29.98600918 -62.99080176 21.03646975 -59.5625 12.9375 C-54.48585555 4.04449695 -46.59260429 -0.32615597 -37 -3 C-36.38294189 -3.1743457 -35.76588379 -3.34869141 -35.13012695 -3.52832031 C-24.2745739 -5.93209435 -9.79053558 -5.31619846 0 0 Z M-34 17 C-35.51388554 20.02777107 -35.53241101 22.72776605 -35 26 C-32.84134963 31.83104312 -30.39554716 36.60851322 -25 40 C-17.25579108 33.93132171 -17.25579108 33.93132171 -13.69140625 25.0234375 C-13.46098458 21.29479587 -13.86160771 19.21681459 -15.875 16.0625 C-19.3839575 12.65674714 -22.01818439 12.66902725 -26.73828125 12.70703125 C-30.0542278 13.13655801 -31.74987627 14.60924354 -34 17 Z M-35.8125 73.4375 C-40.82205993 78.52800435 -43.56402805 83.44994269 -44.4375 90.5625 C-43.72990223 96.12219679 -42.26582919 100.32463784 -38.875 104.8125 C-33.6575609 108.78229062 -28.49737374 110.35127665 -21.9375 109.9375 C-16.26850771 109.12512104 -10.95262311 107.42196109 -7.27734375 102.86328125 C-6.85582031 102.24839844 -6.43429688 101.63351563 -6 101 C-6.54527344 100.33355469 -7.09054688 99.66710937 -7.65234375 98.98046875 C-9.24377322 97.03538828 -10.83489584 95.09005673 -12.42578125 93.14453125 C-14.06606725 91.13946246 -15.7096956 89.13730203 -17.35546875 87.13671875 C-21.560839 82.0193405 -25.69088478 76.86459442 -29.6875 71.58203125 C-30.120625 71.05996094 -30.55375 70.53789062 -31 70 C-32.98840704 70 -34.46903058 72.15883616 -35.8125 73.4375 Z " fill="#FDFDFE" transform="translate(2239,132)"/>
<path d="M0 0 C2.0638072 1.43085518 3.88708706 2.93703611 5.7265625 4.64453125 C6.28085938 5.15757812 6.83515625 5.670625 7.40625 6.19921875 C13.97713826 13.0316349 15.95777975 21.03457163 15.9765625 30.33203125 C15.8940625 32.41515625 15.8115625 34.49828125 15.7265625 36.64453125 C6.8165625 36.64453125 -2.0934375 36.64453125 -11.2734375 36.64453125 C-11.98958333 33.12890625 -12.70572917 29.61328125 -13.421875 26.09765625 C-14.50099103 21.72179123 -15.08918194 19.45329115 -18.8359375 16.89453125 C-24.46258773 14.84847662 -29.02993268 14.7132651 -34.5859375 17.01953125 C-41.22398509 23.50320564 -42.26826155 32.85267496 -42.41870117 41.74682617 C-42.43197471 43.7061871 -42.4392215 45.66559533 -42.44140625 47.625 C-42.44473465 48.67424149 -42.44806305 49.72348297 -42.45149231 50.80451965 C-42.45653974 53.01917078 -42.45890131 55.23382946 -42.45874023 57.44848633 C-42.46091909 60.8036787 -42.4790774 64.15853789 -42.49804688 67.51367188 C-42.50098293 69.67578014 -42.50296631 71.83788995 -42.50390625 74 C-42.51109177 74.98792038 -42.51827728 75.97584076 -42.52568054 76.99369812 C-42.49724215 92.48651055 -42.49724215 92.48651055 -35.2734375 105.64453125 C-31.56159091 107.58251918 -28.48898955 107.89082607 -24.3359375 107.83203125 C-23.33691406 107.82558594 -22.33789062 107.81914062 -21.30859375 107.8125 C-17.76093275 107.67180257 -17.76093275 107.67180257 -12.2734375 106.64453125 C-12.2734375 97.40453125 -12.2734375 88.16453125 -12.2734375 78.64453125 C-16.8934375 78.64453125 -21.5134375 78.64453125 -26.2734375 78.64453125 C-26.2734375 71.71453125 -26.2734375 64.78453125 -26.2734375 57.64453125 C-12.4134375 57.64453125 1.4465625 57.64453125 15.7265625 57.64453125 C15.7265625 79.75453125 15.7265625 101.86453125 15.7265625 124.64453125 C-39.41765321 133.35151268 -39.41765321 133.35151268 -57.2734375 120.64453125 C-68.66212386 110.5775493 -70.87080917 95.72887226 -71.9609375 81.26953125 C-74.96671841 24.69137688 -74.96671841 24.69137688 -60.2734375 5.64453125 C-45.88737364 -8.74153261 -16.93741819 -10.09842631 0 0 Z " fill="#FDFDFE" transform="translate(1990.2734375,133.35546875)"/>
<path d="M0 0 C9.24 0 18.48 0 28 0 C28.01981934 2.77011475 28.03963867 5.54022949 28.06005859 8.39428711 C28.12709001 17.56652952 28.20472759 26.73866034 28.28752708 35.91077328 C28.33738429 41.46954307 28.38371511 47.02829483 28.421875 52.5871582 C28.45886157 57.95592752 28.50525743 63.32454198 28.55806351 68.69317818 C28.57653656 70.73716059 28.59167042 72.78117611 28.60334396 74.82520866 C28.62032819 77.69735303 28.64939179 80.56914819 28.68115234 83.44116211 C28.68331253 84.27842331 28.68547272 85.11568451 28.68769836 85.97831726 C28.80288211 94.179899 29.72025182 101.44031286 35 108 C39.5602982 111.0401988 44.12711536 111.4944034 49.51953125 110.56640625 C54.27328678 109.24306837 54.27328678 109.24306837 57.4375 105.6875 C57.7159375 104.3571875 57.7159375 104.3571875 58 103 C58.33502533 102.1522702 58.67005066 101.30454041 59.01522827 100.43112183 C60.280746 96.02183046 60.30771272 91.97870701 60.31884766 87.41455078 C60.33391609 85.99409203 60.33391609 85.99409203 60.34928894 84.54493713 C60.38007262 81.42840151 60.3971428 78.31195162 60.4140625 75.1953125 C60.432778 73.02911647 60.4523517 70.86292769 60.4727478 68.69674683 C60.52403448 63.00537398 60.56367886 57.31397751 60.60089111 51.62249756 C60.64095239 45.81077242 60.69203507 39.99914527 60.7421875 34.1875 C60.83890589 22.79172872 60.92230487 11.39591687 61 0 C70.24 0 79.48 0 89 0 C89.0678973 12.86566734 89.12288632 25.73121481 89.15543652 38.5970211 C89.17106247 44.5717474 89.19224473 50.54634427 89.22631836 56.52099609 C89.25902116 62.29168589 89.27687609 68.06225154 89.28463173 73.83302689 C89.29015564 76.02974017 89.30094235 78.22644701 89.31719017 80.42310715 C89.33910943 83.51057126 89.34196086 86.59752864 89.34057617 89.68505859 C89.351362 90.58417969 89.36214783 91.48330078 89.3732605 92.40966797 C89.319357 103.58723848 85.80177355 112.80654553 78.1484375 120.9765625 C67.64776373 130.80787061 54.78836833 132.48700687 40.84375 132.24609375 C28.00409159 131.42404245 17.69607388 128.1336954 8.625 118.8125 C0.80005326 109.43837189 -0.16197436 98.15045043 -0.11352539 86.39282227 C-0.11367142 85.45545731 -0.11381744 84.51809235 -0.1139679 83.55232239 C-0.11327477 80.47365961 -0.10551059 77.39505837 -0.09765625 74.31640625 C-0.09578994 72.17406752 -0.09436704 70.03172835 -0.09336853 67.88938904 C-0.08956016 62.26537893 -0.07974426 56.64139487 -0.06866455 51.01739502 C-0.05841426 45.27266797 -0.05386317 39.52793669 -0.04882812 33.78320312 C-0.03812044 22.52212217 -0.02053729 11.26106733 0 0 Z " fill="#FDFDFE" transform="translate(1690,130)"/>
<path d="M0 0 C1.56047445 0.00015913 3.12095416 0.00585397 4.68139648 0.01586914 C5.5012352 0.01728409 6.32107391 0.01869904 7.16575623 0.02015686 C9.79470406 0.0257725 12.42356797 0.0383276 15.05249023 0.05102539 C16.8304838 0.05603838 18.60847869 0.06060163 20.38647461 0.06469727 C24.75434569 0.07574701 29.12215371 0.09302208 33.48999023 0.11352539 C39.407214 21.89240583 45.32325353 43.67160752 51.23706055 65.45141602 C51.72973554 67.26586936 52.22241131 69.08032248 52.71508789 70.89477539 C52.95364628 71.77335205 53.19220467 72.65192871 53.4379921 73.55712891 C54.89415996 78.91980147 56.35079412 84.28234711 57.80786133 89.64477539 C59.38623528 95.45380522 60.96354594 101.26312228 62.53970337 107.07275391 C63.08904384 109.09680021 63.63882683 111.12072646 64.1890564 113.14453125 C64.93375544 115.88388318 65.67693725 118.6236419 66.41967773 121.36352539 C66.6342009 122.15118286 66.84872406 122.93884033 67.06974792 123.75036621 C68.48999023 128.99926936 68.48999023 128.99926936 68.48999023 130.11352539 C58.58999023 130.11352539 48.68999023 130.11352539 38.48999023 130.11352539 C37.33499023 125.69977539 36.17999023 121.28602539 34.98999023 116.73852539 C34.62454102 115.34714355 34.2590918 113.95576172 33.88256836 112.5222168 C33.45621094 110.88518799 33.45621094 110.88518799 33.02124023 109.21508789 C32.72797852 108.09440918 32.4347168 106.97373047 32.13256836 105.8190918 C31.48999023 103.11352539 31.48999023 103.11352539 31.48999023 101.11352539 C19.60999023 101.11352539 7.72999023 101.11352539 -4.51000977 101.11352539 C-5.69447619 106.54117706 -5.69447619 106.54117706 -6.87255859 111.97021484 C-8.22232487 118.09856086 -9.85265504 124.03655805 -11.51000977 130.11352539 C-20.75000977 130.11352539 -29.99000977 130.11352539 -39.51000977 130.11352539 C-36.62645075 117.4828872 -33.35500822 105.01330369 -29.86157227 92.53930664 C-29.32084294 90.59857274 -28.78043445 88.65774942 -28.24032593 86.71684265 C-26.82851557 81.64639948 -25.41277529 76.57706255 -23.99603271 71.50799561 C-22.28980086 65.40066041 -20.58782758 59.29213747 -18.88567162 53.18366528 C-17.55806102 48.4193766 -16.22974995 43.65528854 -14.89883423 38.891922 C-14.40669926 37.12897368 -13.91462278 35.36600904 -13.42260742 33.60302734 C-13.06687621 32.32996971 -13.06687621 32.32996971 -12.70395851 31.03119373 C-11.39583723 26.33762265 -10.10873475 21.63904257 -8.8427124 16.93392944 C-8.56849646 15.91731578 -8.29428051 14.90070211 -8.01175499 13.85328197 C-7.48158167 11.88389666 -6.95429639 9.91373108 -6.43021584 7.94271564 C-6.19328703 7.06303718 -5.95635822 6.18335871 -5.71224976 5.27702332 C-5.39951646 4.10512341 -5.39951646 4.10512341 -5.08046532 2.90954876 C-4.05087516 -0.33201491 -3.69753916 0.11959071 0 0 Z M12.48999023 27.11352539 C10.89403392 34.17690471 9.31038431 41.24296093 7.73535156 48.31103516 C7.19783502 50.71629579 6.6574809 53.12092409 6.11425781 55.52490234 C5.3349307 58.97600478 4.56576233 62.42923605 3.79858398 65.88305664 C3.55281113 66.96126175 3.30703827 68.03946686 3.05381775 69.15034485 C2.72336205 70.65156136 2.72336205 70.65156136 2.38623047 72.18310547 C2.18859604 73.06468826 1.99096161 73.94627106 1.78733826 74.85456848 C1.30112361 77.27581073 1.30112361 77.27581073 2.48999023 80.11352539 C10.07999023 80.11352539 17.66999023 80.11352539 25.48999023 80.11352539 C21.87806672 62.35490147 17.68444504 44.74153068 13.48999023 27.11352539 C13.15999023 27.11352539 12.82999023 27.11352539 12.48999023 27.11352539 Z " fill="#FDFDFE" transform="translate(1362.510009765625,129.886474609375)"/>
<path d="M0 0 C1.05703125 -0.01015137 2.1140625 -0.02030273 3.203125 -0.03076172 C13.31000304 0.08150179 22.23000336 1.85933097 29.8671875 8.86328125 C36.49754239 15.77402428 38.54348645 23.71329329 38.5625 33.125 C38.48 35.208125 38.3975 37.29125 38.3125 39.4375 C29.4025 39.4375 20.4925 39.4375 11.3125 39.4375 C10.3225 35.1475 9.3325 30.8575 8.3125 26.4375 C6.45317097 22.9893732 6.45317097 22.9893732 3.3125 21.4375 C-0.98648808 20.66368215 -4.50033564 20.97295742 -8.5625 22.5625 C-11.83734064 25.45206527 -13.46562152 28.13337733 -13.890625 32.546875 C-13.69331504 38.26886391 -11.61261824 41.31842313 -7.83642578 45.44824219 C-4.16510872 48.84677563 0.03592581 51.05310697 4.4375 53.375 C6.31080608 54.4087615 8.18190735 55.44652847 10.05078125 56.48828125 C10.9526416 56.98924316 11.85450195 57.49020508 12.78369141 58.00634766 C24.80531309 64.80985666 35.40185148 72.63521112 39.3125 86.4375 C41.71715982 97.98641045 40.3051796 110.23121755 34.3125 120.4375 C28.73027064 128.31658415 19.93294039 131.92374017 10.6875 133.75 C-3.75114608 135.69510258 -21.66450502 136.4135817 -33.7890625 127.21875 C-40.69134321 120.742536 -43.03630265 113.61081862 -44.6875 104.4375 C-44.6875 100.1475 -44.6875 95.8575 -44.6875 91.4375 C-35.4475 91.4375 -26.2075 91.4375 -16.6875 91.4375 C-16.44 93.62375 -16.1925 95.81 -15.9375 98.0625 C-15.01613275 105.61862549 -15.01613275 105.61862549 -10.6875 111.4375 C-5.94839308 113.25705239 -1.83031819 113.58496041 3.1875 112.9375 C7.24736983 110.98876248 8.47332208 109.55725854 10.3125 105.4375 C11.07506767 100.59480225 10.89913404 96.73829721 8.875 92.25 C3.62600753 86.48891071 -2.46405858 82.38467056 -9.30859375 78.7421875 C-12.95411287 76.74283875 -16.43572098 74.5117364 -19.91796875 72.2421875 C-21.71404296 71.07182603 -23.5285923 69.929161 -25.36328125 68.8203125 C-32.18429483 64.49378189 -35.94362556 59.55086143 -39.6875 52.4375 C-40.0484375 51.80328125 -40.409375 51.1690625 -40.78125 50.515625 C-44.52882842 42.67347016 -43.71513484 31.11451205 -41.5 22.9375 C-37.84298667 12.8933528 -32.66289729 7.82014748 -23.09375 3.1796875 C-15.48080434 0.2532057 -8.08430839 0.05555007 0 0 Z " fill="#FDFDFE" transform="translate(1274.6875,127.5625)"/>
<path d="M0 0 C1.10021484 0.00902344 2.20042969 0.01804687 3.33398438 0.02734375 C14.75186393 0.27157647 23.24591068 1.99150022 31.71875 10.21875 C38.96800517 18.94242995 38.5625 28.28586142 38.5625 39.4375 C29.6525 39.4375 20.7425 39.4375 11.5625 39.4375 C10.5725 35.1475 9.5825 30.8575 8.5625 26.4375 C6.70317097 22.9893732 6.70317097 22.9893732 3.5625 21.4375 C-0.73648808 20.66368215 -4.25033564 20.97295742 -8.3125 22.5625 C-11.58734064 25.45206527 -13.21562152 28.13337733 -13.640625 32.546875 C-13.45439396 37.9475753 -11.76881528 41.47962637 -8.0390625 45.33984375 C-2.67649458 49.66371608 3.41838347 52.87771197 9.41748047 56.22802734 C22.54115342 63.6278311 33.65563227 70.43956147 38.96264648 85.20922852 C40.03745596 89.20181545 40.04990149 93.13685953 40 97.25 C39.99170166 98.13075195 39.98340332 99.01150391 39.97485352 99.91894531 C39.72009907 109.7501097 37.5017708 117.53462437 30.51953125 124.72265625 C19.15945373 134.67689583 3.11720909 135.36884239 -11.33642578 134.6015625 C-21.92562739 133.77470409 -30.21337951 130.66162049 -37.75 123.125 C-42.75451585 115.15484514 -44.61574719 108.0025709 -44.5 98.625 C-44.479375 96.253125 -44.45875 93.88125 -44.4375 91.4375 C-35.1975 91.4375 -25.9575 91.4375 -16.4375 91.4375 C-16.19 93.62375 -15.9425 95.81 -15.6875 98.0625 C-14.76613275 105.61862549 -14.76613275 105.61862549 -10.4375 111.4375 C-5.63556049 113.2811766 -1.56876225 113.61706544 3.5 112.8125 C6.70578285 111.37316893 7.90099744 110.48358803 9.5625 107.4375 C11.31314837 102.18555488 11.16208272 98.03638726 9.25 92.9375 C4.42248017 85.60560129 -4.40860304 81.42249804 -11.80053711 77.10546875 C-25.81399676 68.905759 -37.86725829 60.87849939 -42.4375 44.4375 C-43.28597119 34.54195811 -43.0814043 25.43410667 -38.4375 16.4375 C-37.92896484 15.44169922 -37.92896484 15.44169922 -37.41015625 14.42578125 C-32.62183433 6.57020685 -24.00716251 3.25302245 -15.47460938 1.03955078 C-10.31760825 0.01727065 -5.24319534 -0.0513724 0 0 Z " fill="#FDFDFE" transform="translate(1632.4375,127.5625)"/>
<path d="M0 0 C1.50143555 -0.02779541 1.50143555 -0.02779541 3.03320312 -0.05615234 C13.17457507 0.02874752 21.8346537 2.58720143 29.2265625 9.72265625 C38.49451649 19.71535546 38.20148712 30.6581734 37.875 43.5 C28.965 43.5 20.055 43.5 10.875 43.5 C10.0625 36.375 10.0625 36.375 9.82885742 34.16748047 C9.27933318 29.73885561 8.17847283 26.31784666 5.875 22.5 C2.68157621 20.90328811 -0.65045631 21.12581837 -4.125 21.5 C-7.82616811 23.14496361 -10.08545688 25.00364036 -12.125 28.5 C-15.05381018 36.9610072 -15.28912458 45.43587465 -15.328125 54.2890625 C-15.33667511 55.82039322 -15.33667511 55.82039322 -15.34539795 57.38265991 C-15.3548046 59.53585793 -15.36136459 61.68907007 -15.36523438 63.84228516 C-15.37490879 67.09433882 -15.4059616 70.34575132 -15.4375 73.59765625 C-15.96175181 92.89830047 -15.96175181 92.89830047 -9.125 110.5 C-5.61050289 112.76306637 -2.01670649 113.5 2.125 113.5 C5.74277124 112.18444682 6.88031405 110.77698406 8.875 107.5 C11.52817445 100.7972435 11.29307104 95.06507647 11.875 87.5 C21.115 87.5 30.355 87.5 39.875 87.5 C39.875 100.73069018 39.13423285 115.25081574 29.5625 125.5 C19.48929373 134.42260297 6.8234546 135.25821958 -6.09667969 134.64355469 C-17.32758028 133.84868594 -26.0672327 130.82000831 -33.9296875 122.6171875 C-50.63398964 102.09001025 -46.55679301 65.39429636 -44.375 40.9375 C-43.05081832 28.11883766 -39.78449648 15.81701703 -29.5625 7.1875 C-20.30251036 0.99692964 -10.84991021 0.12488387 0 0 Z " fill="#FDFDFE" transform="translate(2112.125,127.5)"/>
<path d="M0 0 C29.04 0 58.08 0 88 0 C88 7.26 88 14.52 88 22 C78.1 22 68.2 22 58 22 C58 57.64 58 93.28 58 130 C48.76 130 39.52 130 30 130 C30 94.36 30 58.72 30 22 C20.1 22 10.2 22 0 22 C0 14.74 0 7.48 0 0 Z " fill="#FDFDFE" transform="translate(2277,130)"/>
<path d="M0 0 C0.66 0.33 1.32 0.66 2 1 C-1.3 4.3 -4.6 7.6 -8 11 C-8 6.67750434 -5.85084926 5.11604454 -3 2 C-2.01 1.34 -1.02 0.68 0 0 Z " fill="#F1F3F9" transform="translate(2084,134)"/>
</svg>
